<svg
    xmlns="http://www.w3.org/2000/svg"
    xmlns:xlink="http://www.w3.org/1999/xlink"
    width="19px" height="19px">
    <path fill-rule="evenodd"  opacity="0.502" fill="rgb(0, 0, 0)"
          d="M17.000,19.000 L2.000,19.000 C0.895,19.000 -0.000,18.105 -0.000,17.000 L-0.000,2.000 C-0.000,0.895 0.895,-0.000 2.000,-0.000 L17.000,-0.000 C18.105,-0.000 19.000,0.895 19.000,2.000 L19.000,17.000 C19.000,18.105 18.105,19.000 17.000,19.000 ZM18.000,2.000 C18.000,1.448 17.552,1.000 17.000,1.000 L2.000,1.000 C1.448,1.000 1.000,1.448 1.000,2.000 L1.000,17.000 C1.000,17.552 1.448,18.000 2.000,18.000 L17.000,18.000 C17.552,18.000 18.000,17.552 18.000,17.000 L18.000,2.000 ZM13.000,14.000 L12.000,14.000 L12.000,13.000 L11.000,13.000 L11.000,12.000 L10.000,12.000 L10.000,11.000 L9.000,11.000 L9.000,12.000 L8.000,12.000 L8.000,13.000 L7.000,13.000 L7.000,14.000 L6.000,14.000 L6.000,13.000 L5.000,13.000 L5.000,12.000 L6.000,12.000 L6.000,11.000 L7.000,11.000 L7.000,10.000 L8.000,10.000 L8.000,9.000 L7.000,9.000 L7.000,8.000 L6.000,8.000 L6.000,7.000 L5.000,7.000 L5.000,6.000 L6.000,6.000 L6.000,5.000 L7.000,5.000 L7.000,6.000 L8.000,6.000 L8.000,7.000 L9.000,7.000 L9.000,8.000 L10.000,8.000 L10.000,7.000 L11.000,7.000 L11.000,6.000 L12.000,6.000 L12.000,5.000 L13.000,5.000 L13.000,6.000 L14.000,6.000 L14.000,7.000 L13.000,7.000 L13.000,8.000 L12.000,8.000 L12.000,9.000 L11.000,9.000 L11.000,10.000 L12.000,10.000 L12.000,11.000 L13.000,11.000 L13.000,12.000 L14.000,12.000 L14.000,13.000 L13.000,13.000 L13.000,14.000 Z"/>
</svg>
