<?xml version="1.0" encoding="utf-8"?>
<!-- Generator: Adobe Illustrator 22.1.0, SVG Export Plug-In . SVG Version: 6.00 Build 0)  -->
<svg version="1.1" id="Layer_1" xmlns="http://www.w3.org/2000/svg" xmlns:xlink="http://www.w3.org/1999/xlink" x="0px" y="0px"
	 viewBox="0 0 22 20" style="enable-background:new 0 0 22 20;" xml:space="preserve">
<style type="text/css">
	.st0{fill:#231F20;enable-background:new    ;}
</style>
<path class="st0" d="M18.4,14.7l-2.8-2.8c0.2-0.6,0.4-1.2,0.4-1.9c0-2.8-2.2-5-5-5c-0.7,0-1.3,0.1-1.9,0.4L7.3,3.6
	C8.5,3.2,9.7,3,11,3c5.9,0,11,4.5,11,7C22,11.3,20.6,13.2,18.4,14.7z M11,6.7c1.8,0,3.3,1.5,3.3,3.3c0,0.2,0,0.4-0.1,0.6l-3.9-3.9
	C10.6,6.7,10.8,6.7,11,6.7z M19,19.5L12.5,13c-0.5,0.2-1,0.4-1.5,0.4c-1.8,0-3.3-1.5-3.3-3.3c0-0.6,0.2-1.1,0.4-1.5L1.5,1.9l1.4-1.4
	L20.5,18L19,19.5z M3.6,5.3l2.8,2.8C6.1,8.7,6,9.3,6,10c0,2.8,2.2,5,5,5c0.7,0,1.3-0.1,1.9-0.4l1.8,1.8C13.6,16.8,12.3,17,11,17
	c-6,0-11-4.5-11-7C0,8.7,1.4,6.8,3.6,5.3z"/>
</svg>