<svg 
 xmlns="http://www.w3.org/2000/svg"
 xmlns:xlink="http://www.w3.org/1999/xlink"
 width="14px" height="18px">
<path fill-rule="evenodd"  fill="rgb(255, 255, 255)"
 d="M-0.001,4.999 L-0.001,2.993 C-0.001,2.440 0.476,1.992 1.066,1.992 L4.993,1.992 L4.993,1.003 C4.993,0.449 5.442,-0.001 5.997,-0.001 L8.001,-0.001 C8.555,-0.001 9.005,0.449 9.005,1.003 L9.005,1.992 L12.932,1.992 C13.521,1.992 13.999,2.440 13.999,2.993 L13.999,4.999 L-0.001,4.999 ZM12.176,15.831 C12.176,17.028 11.213,17.999 10.024,17.999 L3.974,17.999 C2.785,17.999 1.821,17.028 1.821,15.831 L1.003,5.986 L12.994,5.986 L12.176,15.831 Z"/>
</svg>