<svg xmlns="http://www.w3.org/2000/svg" width="20" height="20" viewBox="0 0 20 20">
    <metadata><?xpacket begin="﻿" id="W5M0MpCehiHzreSzNTczkc9d"?>
        <x:xmpmeta xmlns:x="adobe:ns:meta/" x:xmptk="Adobe XMP Core 5.6-c142 79.160924, 2017/07/13-01:06:39        ">
            <rdf:RDF xmlns:rdf="http://www.w3.org/1999/02/22-rdf-syntax-ns#">
                <rdf:Description rdf:about=""/>
            </rdf:RDF>
        </x:xmpmeta>
        <?xpacket end="w"?></metadata>
    <style type="text/css">
        .cls-1{fill:#1662c1;}
    </style>
    <path id="info.svg" class="cls-1" d="M494,406a10,10,0,1,1,10-10A10,10,0,0,1,494,406Zm0-18a8,8,0,1,0,8,8A8,8,0,0,0,494,388Zm0,13a1,1,0,0,1-1-1v-4a1,1,0,0,1,2,0v4A1,1,0,0,1,494,401Zm0-8a1,1,0,1,1,1-1A1,1,0,0,1,494,393Z" transform="translate(-484 -386)"/>
</svg>
