<svg
    xmlns="http://www.w3.org/2000/svg"
    xmlns:xlink="http://www.w3.org/1999/xlink"
    width="22px" height="14px">
    <path fill-rule="evenodd" fill="rgb(0, 0, 0)"
          d="M11.000,14.000 C5.000,14.000 -0.000,9.533 -0.000,7.000 C-0.000,4.467 5.133,-0.000 11.000,-0.000 C16.867,-0.000 22.000,4.467 22.000,7.000 C22.000,9.533 17.000,14.000 11.000,14.000 ZM11.000,2.000 C8.238,2.000 6.000,4.238 6.000,7.000 C6.000,9.761 8.238,12.000 11.000,12.000 C13.761,12.000 16.000,9.761 16.000,7.000 C16.000,4.238 13.761,2.000 11.000,2.000 ZM11.000,10.000 C9.343,10.000 8.000,8.657 8.000,7.000 C8.000,5.343 9.343,4.000 11.000,4.000 C11.524,4.000 12.009,4.146 12.437,4.382 L10.667,7.333 L13.618,5.562 C13.854,5.991 14.000,6.476 14.000,7.000 C14.000,8.657 12.657,10.000 11.000,10.000 Z"/>
</svg>